<svg width="50" height="45" viewBox="0 0 50 45" fill="none" xmlns="http://www.w3.org/2000/svg">
<line x1="1" y1="4.37114e-08" x2="0.999998" y2="45" stroke="white" stroke-width="2"/>
<path d="M22 34.5C19.8 34.5 18 36.3 18 38.5C18 40.7 19.8 42.5 22 42.5C24.2 42.5 26 40.7 26 38.5C26 36.3 24.2 34.5 22 34.5ZM10 2.5V6.5H14L21.2 21.7L18.4 26.5C18.2 27.1 18 27.9 18 28.5C18 30.7 19.8 32.5 22 32.5H46V28.5H22.8C22.6 28.5 22.4 28.3 22.4 28.1V27.8999L24.2 24.4999H39C40.6 24.4999 41.8 23.6999 42.4 22.4999L49.6 9.5C50 9.1 50 8.9 50 8.5C50 7.3 49.2 6.5 48 6.5H18.4L16.6 2.5H10ZM42 34.5C39.8 34.5 38 36.3 38 38.5C38 40.7 39.8 42.5 42 42.5C44.2 42.5 46 40.7 46 38.5C46 36.3 44.2 34.5 42 34.5Z" fill="white"/>
</svg>
