<svg width="52" height="48" viewBox="0 0 52 48" fill="none" xmlns="http://www.w3.org/2000/svg">
<path d="M3.7547 22.8519L3.77051 22.8747L3.78876 22.8957L23.2153 45.1731L23.2256 45.1849L23.2365 45.196C23.7808 45.7468 24.2412 46.1879 24.6574 46.4906C25.076 46.7951 25.5037 47.0001 25.9789 47.0001C26.4541 47.0001 26.8818 46.7951 27.3004 46.4906C27.7166 46.1878 28.177 45.7468 28.7213 45.196L28.732 45.1851L28.7421 45.1736L48.2123 22.8961L48.218 22.8896L48.2234 22.8829C50.224 20.4285 51.5 17.7782 51.5 14.1095C51.5 7.28162 46.1354 1.00012 38.5 1.00012C33.2803 1.00012 29.3136 3.83281 26.0172 6.78858C22.8245 3.64708 18.7117 1.00012 13.5 1.00012C5.86448 1.00012 0.5 7.28154 0.5 14.1095C0.5 17.798 2.08754 20.4472 3.7547 22.8519ZM13.5039 4.80233L13.5039 4.80233C15.6304 4.78559 17.9568 5.82216 20.1318 7.3269C22.2959 8.82415 24.249 10.7425 25.615 12.3914L25.9983 12.8542L26.3837 12.393C27.7128 10.8024 29.6664 8.89201 31.8412 7.38375C34.0276 5.86742 36.3732 4.80234 38.5 4.80234C43.5789 4.80234 47.375 9.20883 47.375 14.1095C47.375 15.4426 47.2067 16.6091 46.7554 17.7893C46.3033 18.9718 45.5573 20.1937 44.3696 21.6238L26.0008 42.5874L7.63872 21.5451C5.43872 18.6169 4.625 16.7118 4.625 14.1095C4.625 9.20735 8.2765 4.84326 13.5039 4.80233Z" fill="#202020" stroke="#202020"/>
</svg>
