<svg width="90" height="90" viewBox="0 0 90 90" fill="none" xmlns="http://www.w3.org/2000/svg">
<rect width="90" height="90" fill="#D9D9D9"/>
<path d="M25.321 50V39.0909H26.642V48.8281H31.7131V50H25.321ZM42.5383 44.5455C42.5383 45.696 42.3305 46.6903 41.915 47.5284C41.4996 48.3665 40.9296 49.0128 40.2052 49.4673C39.4807 49.9219 38.6533 50.1491 37.7229 50.1491C36.7925 50.1491 35.9651 49.9219 35.2407 49.4673C34.5162 49.0128 33.9463 48.3665 33.5308 47.5284C33.1153 46.6903 32.9076 45.696 32.9076 44.5455C32.9076 43.3949 33.1153 42.4006 33.5308 41.5625C33.9463 40.7244 34.5162 40.0781 35.2407 39.6236C35.9651 39.169 36.7925 38.9418 37.7229 38.9418C38.6533 38.9418 39.4807 39.169 40.2052 39.6236C40.9296 40.0781 41.4996 40.7244 41.915 41.5625C42.3305 42.4006 42.5383 43.3949 42.5383 44.5455ZM41.2599 44.5455C41.2599 43.6009 41.1018 42.8036 40.7858 42.1538C40.4733 41.5039 40.0489 41.0121 39.5127 40.6783C38.98 40.3445 38.3834 40.1776 37.7229 40.1776C37.0624 40.1776 36.464 40.3445 35.9278 40.6783C35.3952 41.0121 34.9708 41.5039 34.6547 42.1538C34.3422 42.8036 34.186 43.6009 34.186 44.5455C34.186 45.4901 34.3422 46.2873 34.6547 46.9371C34.9708 47.587 35.3952 48.0788 35.9278 48.4126C36.464 48.7464 37.0624 48.9134 37.7229 48.9134C38.3834 48.9134 38.98 48.7464 39.5127 48.4126C40.0489 48.0788 40.4733 47.587 40.7858 46.9371C41.1018 46.2873 41.2599 45.4901 41.2599 44.5455ZM52.2169 42.5C52.0997 42.1413 51.9452 41.82 51.7535 41.5359C51.5653 41.2482 51.3398 41.0032 51.077 40.8008C50.8177 40.5984 50.523 40.4439 50.1927 40.3374C49.8625 40.2308 49.5003 40.1776 49.1061 40.1776C48.4598 40.1776 47.8721 40.3445 47.343 40.6783C46.8138 41.0121 46.393 41.5039 46.0805 42.1538C45.768 42.8036 45.6118 43.6009 45.6118 44.5455C45.6118 45.4901 45.7698 46.2873 46.0858 46.9371C46.4019 47.587 46.8298 48.0788 47.3696 48.4126C47.9094 48.7464 48.5166 48.9134 49.1913 48.9134C49.8163 48.9134 50.3667 48.7802 50.8426 48.5138C51.322 48.244 51.6949 47.864 51.9612 47.3739C52.2311 46.8803 52.366 46.2997 52.366 45.6321L52.7709 45.7173H49.4896V44.5455H53.6444V45.7173C53.6444 46.6158 53.4527 47.397 53.0692 48.0611C52.6892 48.7251 52.1636 49.2401 51.4925 49.6058C50.8248 49.968 50.0578 50.1491 49.1913 50.1491C48.2254 50.1491 47.3767 49.9219 46.6452 49.4673C45.9172 49.0128 45.349 48.3665 44.9406 47.5284C44.5358 46.6903 44.3334 45.696 44.3334 44.5455C44.3334 43.6825 44.4488 42.9066 44.6796 42.2177C44.914 41.5252 45.2442 40.9357 45.6704 40.4492C46.0965 39.9627 46.6008 39.5898 47.1831 39.3306C47.7655 39.0714 48.4065 38.9418 49.1061 38.9418C49.6814 38.9418 50.2176 39.0288 50.7148 39.2028C51.2155 39.3732 51.6611 39.6165 52.0518 39.9325C52.4459 40.245 52.7744 40.6197 53.0372 41.0565C53.3 41.4897 53.4811 41.9709 53.5805 42.5H52.2169ZM65.1115 44.5455C65.1115 45.696 64.9038 46.6903 64.4883 47.5284C64.0728 48.3665 63.5028 49.0128 62.7784 49.4673C62.054 49.9219 61.2266 50.1491 60.2962 50.1491C59.3658 50.1491 58.5384 49.9219 57.8139 49.4673C57.0895 49.0128 56.5195 48.3665 56.104 47.5284C55.6886 46.6903 55.4808 45.696 55.4808 44.5455C55.4808 43.3949 55.6886 42.4006 56.104 41.5625C56.5195 40.7244 57.0895 40.0781 57.8139 39.6236C58.5384 39.169 59.3658 38.9418 60.2962 38.9418C61.2266 38.9418 62.054 39.169 62.7784 39.6236C63.5028 40.0781 64.0728 40.7244 64.4883 41.5625C64.9038 42.4006 65.1115 43.3949 65.1115 44.5455ZM63.8331 44.5455C63.8331 43.6009 63.6751 42.8036 63.359 42.1538C63.0465 41.5039 62.6222 41.0121 62.0859 40.6783C61.5533 40.3445 60.9567 40.1776 60.2962 40.1776C59.6357 40.1776 59.0373 40.3445 58.5011 40.6783C57.9684 41.0121 57.544 41.5039 57.228 42.1538C56.9155 42.8036 56.7592 43.6009 56.7592 44.5455C56.7592 45.4901 56.9155 46.2873 57.228 46.9371C57.544 47.587 57.9684 48.0788 58.5011 48.4126C59.0373 48.7464 59.6357 48.9134 60.2962 48.9134C60.9567 48.9134 61.5533 48.7464 62.0859 48.4126C62.6222 48.0788 63.0465 47.587 63.359 46.9371C63.6751 46.2873 63.8331 45.4901 63.8331 44.5455Z" fill="#767676"/>
</svg>
