<svg width="22" height="23" viewBox="0 0 22 23" fill="none" xmlns="http://www.w3.org/2000/svg">
<path d="M21.4631 19.3709L16.8091 14.717C17.7707 13.2677 18.3335 11.5324 18.3335 9.66701C18.3335 4.61245 14.2213 0.500244 9.16676 0.500244C4.11221 0.500244 0 4.61245 0 9.66701C0 14.7216 4.11221 18.8338 9.16676 18.8338C11.0322 18.8338 12.7675 18.2709 14.2167 17.3093L18.8707 21.9633C19.5857 22.6792 20.748 22.6792 21.4631 21.9633C22.179 21.2474 22.179 20.0869 21.4631 19.3709ZM2.75003 9.66701C2.75003 6.12864 5.62839 3.25027 9.16676 3.25027C12.7051 3.25027 15.5835 6.12864 15.5835 9.66701C15.5835 13.2054 12.7051 16.0837 9.16676 16.0837C5.62839 16.0837 2.75003 13.2054 2.75003 9.66701Z" fill="#202020"/>
</svg>
