<svg width="45" height="46" viewBox="0 0 45 46" fill="none" xmlns="http://www.w3.org/2000/svg">
<path d="M13.5 36.5001C11.025 36.5001 9 38.5251 9 41.0001C9 43.4751 11.025 45.5001 13.5 45.5001C15.975 45.5001 18 43.4751 18 41.0001C18 38.5251 15.975 36.5001 13.5 36.5001ZM0 0.500122V5.00012H4.5L12.6 22.1001L9.45 27.5001C9.225 28.1751 9 29.0751 9 29.7501C9 32.2251 11.025 34.2501 13.5 34.2501H40.5V29.7501H14.4C14.175 29.7501 13.95 29.5251 13.95 29.3001V29.075L15.975 25.25H32.625C34.425 25.25 35.775 24.35 36.45 23L44.55 8.37512C45 7.92512 45 7.70012 45 7.25012C45 5.90012 44.1 5.00012 42.75 5.00012H9.45L7.425 0.500122H0ZM36 36.5001C33.525 36.5001 31.5 38.5251 31.5 41.0001C31.5 43.4751 33.525 45.5001 36 45.5001C38.475 45.5001 40.5 43.4751 40.5 41.0001C40.5 38.5251 38.475 36.5001 36 36.5001Z" fill="#202020"/>
</svg>
